<svg width="20" height="20" xmlns="http://www.w3.org/2000/svg"><path d="M9.776.55c.735 0 1.459.082 2.164.243a.675.675 0 11-.301 1.316 8.326 8.326 0 106.26 6.282.675.675 0 111.317-.295 9.69 9.69 0 01.236 2.129c0 5.343-4.333 9.675-9.676 9.675C4.432 19.9.1 15.568.1 10.225.1 4.882 4.432.55 9.776.55zm0 5.175a.675.675 0 110 1.35 3.15 3.15 0 103.15 3.15.675.675 0 011.35 0 4.5 4.5 0 11-4.5-4.5zM16.587.232c.05.049.087.11.109.175l.655 1.963a.45.45 0 00.285.285l1.957.65a.45.45 0 01.175.745l-3.106 3.107a.45.45 0 01-.46.109l-1.884-.63-2.944 2.945a.675.675 0 01-.955-.954l2.943-2.943-.628-1.885a.45.45 0 01.11-.46L15.95.232a.45.45 0 01.636 0zm-1.03 2.302l-1.366 1.367.476 1.43 1.434.479 1.365-1.365-.575-.192a1.8 1.8 0 01-1.102-1.038l-.037-.1-.194-.581z" fill="#3753FA"/></svg>